<svg version="1.1" id="Layer_1" xmlns="http://www.w3.org/2000/svg" xmlns:xlink="http://www.w3.org/1999/xlink" x="0px" y="0px"
	 width="100%" viewBox="0 0 1254 1254" enable-background="new 0 0 1254 1254" xml:space="preserve">
<path fill="#FCFDFE" opacity="1.000000" stroke="none" 
	d="
M1.000000,138.000000 
	C1.000000,92.406334 1.000000,46.812668 1.000000,1.000000 
	C46.353992,1.000000 91.708336,1.000000 137.529449,1.244958 
	C137.996231,1.489915 137.992233,1.979829 137.617462,2.119046 
	C136.417114,2.366691 135.592621,2.484202 134.765808,2.582256 
	C76.370705,9.507600 35.925301,40.569599 12.229276,93.959526 
	C6.024377,107.939903 3.758593,122.936401 1.764982,138.003326 
	C1.339995,138.000854 1.169998,138.000427 1.000000,138.000000 
z"/>
<path fill="#FCFDFE" opacity="1.000000" stroke="none" 
	d="
M1255.000000,1118.000000 
	C1255.000000,1163.594482 1255.000000,1209.188843 1255.000000,1255.000000 
	C1208.645996,1255.000000 1162.291626,1255.000000 1115.478271,1254.811646 
	C1115.019409,1254.623291 1115.025024,1254.246094 1115.463867,1254.167847 
	C1118.066650,1253.987183 1120.252441,1254.047974 1122.390991,1253.758667 
	C1176.876831,1246.387329 1216.389160,1218.011719 1240.948242,1168.887573 
	C1248.937622,1152.906860 1252.330200,1135.649414 1254.274170,1118.003662 
	C1254.516113,1118.003906 1255.000000,1118.000000 1255.000000,1118.000000 
z"/>
<path fill="#FCFDFE" opacity="1.000000" stroke="none" 
	d="
M1120.000000,1.000000 
	C1164.927490,1.000000 1209.855103,1.000000 1255.000000,1.000000 
	C1255.000000,46.353996 1255.000000,91.708336 1254.745483,137.531677 
	C1254.321289,138.000870 1254.151611,138.001068 1253.859619,137.621246 
	C1253.720459,137.075745 1253.703613,136.910278 1253.686768,136.744843 
	C1247.596436,77.436684 1216.459229,36.442703 1162.392700,12.457882 
	C1148.954712,6.496555 1134.587769,3.632178 1119.993652,1.790508 
	C1119.999634,1.351365 1119.999878,1.175683 1120.000000,1.000000 
z"/>
<path fill="#FCFDFE" opacity="1.000000" stroke="none" 
	d="
M141.000000,1255.000000 
	C94.406601,1255.000000 47.813206,1255.000000 1.000000,1255.000000 
	C1.000000,1208.979370 1.000000,1162.958252 1.250043,1116.468628 
	C1.666782,1116.000000 1.833477,1116.000000 2.130503,1116.330811 
	C2.811091,1121.855835 2.764169,1127.201416 4.032483,1132.213989 
	C6.916482,1143.612305 9.004345,1155.526855 13.956679,1166.034058 
	C39.230724,1219.656738 81.750816,1249.150879 140.977692,1254.428711 
	C140.980499,1254.619385 141.000000,1255.000000 141.000000,1255.000000 
z"/>
<path fill="#DFF8FC" opacity="1.000000" stroke="none" 
	d="
M1119.546387,1.000000 
	C1119.999878,1.175683 1119.999634,1.351365 1119.531982,1.875758 
	C1115.899170,2.169372 1112.734131,2.066085 1109.568970,2.066028 
	C819.689453,2.060855 529.809937,2.066435 239.930389,2.061969 
	C205.951004,2.061446 171.971619,2.008482 137.992233,1.979829 
	C137.992233,1.979829 137.996231,1.489915 137.998108,1.244958 
	C465.030914,1.000000 792.061829,1.000000 1119.546387,1.000000 
z"/>
<path fill="#DFF8FC" opacity="1.000000" stroke="none" 
	d="
M1253.981934,138.001282 
	C1254.151611,138.001068 1254.321289,138.000870 1254.745483,138.000336 
	C1255.000000,464.364258 1255.000000,790.728516 1255.000000,1117.546387 
	C1255.000000,1118.000000 1254.516113,1118.003906 1254.177246,1117.542969 
	C1253.866577,1114.917114 1253.919800,1112.752197 1253.919800,1110.587158 
	C1253.914917,808.041748 1253.904541,505.496307 1253.901489,202.950882 
	C1253.901367,181.301010 1253.953857,159.651154 1253.981934,138.001282 
z"/>
<path fill="#FBFCFD" opacity="1.000000" stroke="none" 
	d="
M2.000172,1116.000000 
	C1.833477,1116.000000 1.666782,1116.000000 1.250043,1116.000000 
	C1.000000,790.302429 1.000000,464.604828 1.000000,138.453629 
	C1.169998,138.000427 1.339995,138.000854 1.857911,138.464157 
	C2.171217,154.586472 2.107286,170.245926 2.106372,185.905365 
	C2.091416,442.132599 2.088360,698.359863 2.072488,954.587097 
	C2.069155,1008.391418 2.025336,1062.195679 2.000172,1116.000000 
z"/>
<path fill="#DFF8FC" opacity="1.000000" stroke="none" 
	d="
M141.453629,1255.000000 
	C141.000000,1255.000000 140.980499,1254.619385 141.443390,1254.357910 
	C142.906021,1254.109863 143.905762,1254.135132 144.905502,1254.135132 
	C418.968079,1254.133057 693.030701,1254.123169 967.093262,1254.130859 
	C1016.403870,1254.132202 1065.714478,1254.205811 1115.025024,1254.246094 
	C1115.025024,1254.246094 1115.019409,1254.623291 1115.009766,1254.811646 
	C790.635742,1255.000000 466.271515,1255.000000 141.453629,1255.000000 
z"/>
<path fill="#0161BD" opacity="1.000000" stroke="none" 
	d="
M1115.463867,1254.167847 
	C1065.714478,1254.205811 1016.403870,1254.132202 967.093262,1254.130859 
	C693.030701,1254.123169 418.968079,1254.133057 144.905502,1254.135132 
	C143.905762,1254.135132 142.906021,1254.109863 141.440582,1254.167236 
	C81.750816,1249.150879 39.230724,1219.656738 13.956679,1166.034058 
	C9.004345,1155.526855 6.916482,1143.612305 4.032483,1132.213989 
	C2.764169,1127.201416 2.811091,1121.855835 2.130503,1116.330811 
	C2.025336,1062.195679 2.069155,1008.391418 2.072488,954.587097 
	C2.088360,698.359863 2.091416,442.132599 2.106372,185.905365 
	C2.107286,170.245926 2.171217,154.586472 2.112900,138.466187 
	C3.758593,122.936401 6.024377,107.939903 12.229276,93.959526 
	C35.925301,40.569599 76.370705,9.507600 134.765808,2.582256 
	C135.592621,2.484202 136.417114,2.366691 137.617462,2.119046 
	C171.971619,2.008482 205.951004,2.061446 239.930389,2.061969 
	C529.809937,2.066435 819.689453,2.060855 1109.568970,2.066028 
	C1112.734131,2.066085 1115.899170,2.169372 1119.526123,2.139218 
	C1134.587769,3.632178 1148.954712,6.496555 1162.392700,12.457882 
	C1216.459229,36.442703 1247.596436,77.436684 1253.686768,136.744843 
	C1253.703613,136.910278 1253.720459,137.075745 1253.859619,137.621246 
	C1253.953857,159.651154 1253.901367,181.301010 1253.901489,202.950882 
	C1253.904541,505.496307 1253.914917,808.041748 1253.919800,1110.587158 
	C1253.919800,1112.752197 1253.866577,1114.917114 1253.935303,1117.542847 
	C1252.330200,1135.649414 1248.937622,1152.906860 1240.948242,1168.887573 
	C1216.389160,1218.011719 1176.876831,1246.387329 1122.390991,1253.758667 
	C1120.252441,1254.047974 1118.066650,1253.987183 1115.463867,1254.167847 
M762.427979,633.796021 
	C818.186279,633.813782 873.944519,633.835999 929.702820,633.836121 
	C932.524780,633.836121 935.346741,633.645630 939.079529,633.626282 
	C957.489929,633.626282 975.900391,633.626282 994.918762,633.626282 
	C994.603271,628.909790 994.340393,624.816956 994.054260,620.725708 
	C991.870911,589.510193 979.344299,562.757446 958.918030,539.432129 
	C946.265198,524.983521 930.956360,513.974548 915.019836,504.858673 
	C916.652832,505.143768 918.312439,505.323914 919.914673,505.730225 
	C935.378784,509.652008 950.796082,513.765381 966.300476,517.519348 
	C983.204102,521.612000 997.250061,513.009460 1001.726196,496.233032 
	C1003.868530,488.203674 1006.157776,480.213684 1008.345764,472.196381 
	C1010.225830,465.307220 1012.773743,458.504944 1013.755737,451.486481 
	C1015.651489,437.937103 1007.396179,424.997131 994.062927,420.989258 
	C977.047485,415.874542 959.784363,411.579010 942.607239,407.008423 
	C907.927368,397.780731 873.243103,388.569214 838.542053,379.421448 
	C814.283264,373.026428 790.119446,366.198761 765.674377,360.608459 
	C748.994507,356.793945 736.119202,365.781677 731.361206,379.481781 
	C726.464844,393.580017 723.101807,408.228119 719.410767,422.722931 
	C715.372986,438.579529 724.423950,453.664062 740.126892,457.798187 
	C769.857483,465.625366 799.617981,473.340302 829.318970,481.278015 
	C839.391907,483.970093 849.322876,487.193390 858.326233,490.350891 
	C766.361267,486.740753 701.562439,561.358032 704.668274,633.616638 
	C723.572144,633.616638 742.500854,633.616638 762.427979,633.796021 
M499.151337,633.658447 
	C517.572998,633.658447 535.994629,633.658447 554.184082,633.658447 
	C554.577942,632.934082 554.842651,632.662598 554.862610,632.374084 
	C554.953918,631.051025 555.029114,629.722656 555.016174,628.397095 
	C554.815552,607.881165 549.209412,588.722412 540.369202,570.391174 
	C533.427673,555.997131 523.397705,543.838135 513.336548,531.847778 
	C514.450195,531.542053 515.547729,531.144958 516.679932,530.944153 
	C538.289246,527.111755 548.477844,508.746552 542.109131,489.607819 
	C538.126038,477.638062 535.164978,465.318146 531.991272,453.091522 
	C527.553223,435.993774 512.336426,426.871033 495.312897,431.447388 
	C461.948975,440.416443 428.600281,449.442078 395.249298,458.459290 
	C354.354706,469.516113 313.592621,481.099762 272.511627,491.413574 
	C254.933044,495.826874 243.737488,512.152466 249.536392,530.357910 
	C253.013062,541.272766 256.167572,552.347839 258.499542,563.552246 
	C260.497375,573.151001 264.774231,580.912842 272.193634,587.793823 
	C267.560150,602.556458 264.280579,617.536316 264.495636,633.559814 
	C283.837158,633.559814 302.759338,633.559814 322.645782,633.718262 
	C324.306763,633.770508 325.967773,633.868286 327.628754,633.868469 
	C381.677734,633.873718 435.726715,633.874146 489.775696,633.853394 
	C492.597473,633.852295 495.419189,633.658936 499.151337,633.658447 
M591.526917,815.849365 
	C596.294678,823.246582 602.926758,827.884216 611.695190,829.140442 
	C633.115723,832.209167 654.516907,833.514282 676.206604,831.256287 
	C706.322266,828.121094 733.923889,818.773560 758.609741,801.151550 
	C769.089600,793.670471 778.928955,785.385254 786.111206,774.587097 
	C792.225708,765.394226 792.561829,755.458252 787.051147,745.786255 
	C781.527405,736.091370 773.170288,731.048645 761.735474,730.878845 
	C751.591003,730.728210 743.821716,734.891541 737.277222,742.249023 
	C728.670532,751.924805 718.719116,759.897339 706.824768,765.225281 
	C679.704956,777.373047 651.551514,778.375610 622.797241,772.967896 
	C611.008667,770.750793 600.830872,773.948120 593.493530,783.494812 
	C585.940674,793.321716 584.782593,804.111450 591.526917,815.849365 
z"/>
<path fill="#2C3751" opacity="1.000000" stroke="none" 
	d="
M272.305450,587.010986 
	C264.774231,580.912842 260.497375,573.151001 258.499542,563.552246 
	C256.167572,552.347839 253.013062,541.272766 249.536392,530.357910 
	C243.737488,512.152466 254.933044,495.826874 272.511627,491.413574 
	C313.592621,481.099762 354.354706,469.516113 395.249298,458.459290 
	C428.600281,449.442078 461.948975,440.416443 495.312897,431.447388 
	C512.336426,426.871033 527.553223,435.993774 531.991272,453.091522 
	C535.164978,465.318146 538.126038,477.638062 542.109131,489.607819 
	C548.477844,508.746552 538.289246,527.111755 516.679932,530.944153 
	C515.547729,531.144958 514.450195,531.542053 512.604797,532.062622 
	C487.587372,538.606018 463.301666,544.934509 438.722076,551.339661 
	C475.960754,566.481079 497.642303,592.417358 498.240936,633.555115 
	C495.419189,633.658936 492.597473,633.852295 489.775696,633.853394 
	C435.726715,633.874146 381.677734,633.873718 327.628754,633.868469 
	C325.967773,633.868286 324.306763,633.770508 322.216339,633.232178 
	C322.030182,612.200623 329.192596,594.203369 342.827515,577.689636 
	C329.736206,581.078308 317.541809,583.756042 305.662506,587.447632 
	C294.333527,590.968262 283.360413,592.594971 272.305450,587.010986 
z"/>
<path fill="#2C3751" opacity="1.000000" stroke="none" 
	d="
M859.318726,490.173950 
	C849.322876,487.193390 839.391907,483.970093 829.318970,481.278015 
	C799.617981,473.340302 769.857483,465.625366 740.126892,457.798187 
	C724.423950,453.664062 715.372986,438.579529 719.410767,422.722931 
	C723.101807,408.228119 726.464844,393.580017 731.361206,379.481781 
	C736.119202,365.781677 748.994507,356.793945 765.674377,360.608459 
	C790.119446,366.198761 814.283264,373.026428 838.542053,379.421448 
	C873.243103,388.569214 907.927368,397.780731 942.607239,407.008423 
	C959.784363,411.579010 977.047485,415.874542 994.062927,420.989258 
	C1007.396179,424.997131 1015.651489,437.937103 1013.755737,451.486481 
	C1012.773743,458.504944 1010.225830,465.307220 1008.345764,472.196381 
	C1006.157776,480.213684 1003.868530,488.203674 1001.726196,496.233032 
	C997.250061,513.009460 983.204102,521.612000 966.300476,517.519348 
	C950.796082,513.765381 935.378784,509.652008 919.914673,505.730225 
	C918.312439,505.323914 916.652832,505.143768 914.275513,504.898682 
	C895.460388,500.017120 877.389526,495.095551 859.318726,490.173950 
z"/>
<path fill="#FBFCFD" opacity="1.000000" stroke="none" 
	d="
M858.822510,490.262421 
	C877.389526,495.095551 895.460388,500.017120 913.811401,504.969482 
	C930.956360,513.974548 946.265198,524.983521 958.918030,539.432129 
	C979.344299,562.757446 991.870911,589.510193 994.054260,620.725708 
	C994.340393,624.816956 994.603271,628.909790 994.918762,633.626282 
	C975.900391,633.626282 957.489929,633.626282 938.604492,633.173096 
	C937.966980,580.421570 892.869690,542.729370 843.968262,546.212158 
	C796.513062,549.591980 760.640137,588.935730 761.429626,633.616638 
	C742.500854,633.616638 723.572144,633.616638 704.668274,633.616638 
	C701.562439,561.358032 766.361267,486.740753 858.822510,490.262421 
z"/>
<path fill="#2C3852" opacity="1.000000" stroke="none" 
	d="
M761.928833,633.706299 
	C760.640137,588.935730 796.513062,549.591980 843.968262,546.212158 
	C892.869690,542.729370 937.966980,580.421570 938.149109,633.131958 
	C935.346741,633.645630 932.524780,633.836121 929.702820,633.836121 
	C873.944519,633.835999 818.186279,633.813782 761.928833,633.706299 
z"/>
<path fill="#2C3852" opacity="1.000000" stroke="none" 
	d="
M591.335693,815.531128 
	C584.782593,804.111450 585.940674,793.321716 593.493530,783.494812 
	C600.830872,773.948120 611.008667,770.750793 622.797241,772.967896 
	C651.551514,778.375610 679.704956,777.373047 706.824768,765.225281 
	C718.719116,759.897339 728.670532,751.924805 737.277222,742.249023 
	C743.821716,734.891541 751.591003,730.728210 761.735474,730.878845 
	C773.170288,731.048645 781.527405,736.091370 787.051147,745.786255 
	C792.561829,755.458252 792.225708,765.394226 786.111206,774.587097 
	C778.928955,785.385254 769.089600,793.670471 758.609741,801.151550 
	C733.923889,818.773560 706.322266,828.121094 676.206604,831.256287 
	C654.516907,833.514282 633.115723,832.209167 611.695190,829.140442 
	C602.926758,827.884216 596.294678,823.246582 591.335693,815.531128 
z"/>
<path fill="#FBFCFD" opacity="1.000000" stroke="none" 
	d="
M498.696136,633.606812 
	C497.642303,592.417358 475.960754,566.481079 438.722076,551.339661 
	C463.301666,544.934509 487.587372,538.606018 512.238770,532.259033 
	C523.397705,543.838135 533.427673,555.997131 540.369202,570.391174 
	C549.209412,588.722412 554.815552,607.881165 555.016174,628.397095 
	C555.029114,629.722656 554.953918,631.051025 554.862610,632.374084 
	C554.842651,632.662598 554.577942,632.934082 554.184082,633.658447 
	C535.994629,633.658447 517.572998,633.658447 498.696136,633.606812 
z"/>
<path fill="#FBFCFD" opacity="1.000000" stroke="none" 
	d="
M272.249542,587.402405 
	C283.360413,592.594971 294.333527,590.968262 305.662506,587.447632 
	C317.541809,583.756042 329.736206,581.078308 342.827515,577.689636 
	C329.192596,594.203369 322.030182,612.200623 321.734222,633.152954 
	C302.759338,633.559814 283.837158,633.559814 264.495636,633.559814 
	C264.280579,617.536316 267.560150,602.556458 272.249542,587.402405 
z"/>
</svg>